# xmcd CD database file
#
# Track frame offsets:
#	150
#	11314
#	24288
#	39421
#	52503
#	65828
#	75777
#	90775
#	100346
#	110242
#	121784
#	131247
#
# Disc length: 1904 seconds
#
# Revision: 0
# Processed by: cddbd v1.5PL3 Copyright (c) Steve Scherf et al.
# Submitted via: CDex 1.50
#
DISCID=82076e0c
DTITLE=John Williams - Dusty Porch
DYEAR=2004
DGENRE=Blues
TTITLE0=Steam Train
TTITLE1=Creekside
TTITLE2=Aunt Louise
TTITLE3=Dusty Porch
TTITLE4=Soon Enough
TTITLE5=Old Man Rocking Chair
TTITLE6=Sun Break
TTITLE7=Gone Fishin
TTITLE8=Curious Women
TTITLE9=Cloudy Creek
TTITLE10=Talkin Back
TTITLE11=Country Kitchen
EXTD=YEAR: 2004
EXTT0=
EXTT1=
EXTT2=
EXTT3=
EXTT4=
EXTT5=
EXTT6=
EXTT7=
EXTT8=
EXTT9=
EXTT10=
EXTT11=
PLAYORDER=
